:version 1.10
:name ASF
:units
  mass 1
  length 1
  angle deg
:documentation
  ASF file generated by Kaydara
:root
  axis xyz
  order  tx ty tz rx ry rz
  position 0 0 0
  orientation 0 0 0
:bonedata
  begin
    id 1
    name RightUpLegDummy
    direction -1 2.30186e-007 8.31532e-007
    length 4.04083
    axis 0 0 0 xyz
  end
  begin
    id 2
    name RightUpLeg
    direction -0.000919234 -0.999985 0.00544864
    length 17.4221
    axis -3.80308 -0.00076134 -0.0523649 xyz
    dof rx ry rz
  end
  begin
    id 3
    name RightLeg
    direction -0.000919271 -0.999984 -0.00555045
    length 17.1239
    axis 4.00314 0.0181274 -0.183583 xyz
    dof rx ry rz
  end
  begin
    id 4
    name RightFoot
    direction -2.57843e-005 -4.04509e-007 1
    length 6.72091
    axis 8.18909e-005 -0.122003 -0.403008 xyz
    dof rx ry rz
  end
  begin
    id 5
    name RightToes
    direction 0.00116825 -0.014069 0.9999
    length 3.85082
    axis 0.000514414 0.540638 -0.356797 xyz
    dof rx ry rz
  end
  begin
    id 6
    name SpineDummy
    direction 0.0168869 0.966876 -0.254689
    length 6.99894
    axis 0 0 0 xyz
  end
  begin
    id 7
    name Spine
    direction -0.0132008 0.999903 0.00446247
    length 11.1999
    axis -0.00148109 0.00725429 0.756411 xyz
    dof rx ry rz
  end
  begin
    id 8
    name Spine1
    direction 0 0 0
    length 0
    axis -0.000934958 0.0245693 1.46543 xyz
    dof rx ry rz
  end
  begin
    id 9
    name HEadDummy
    direction -0.0255732 0.999672 0.00128215
    length 3.43865
    axis -0.000934958 0.0245693 1.46543 xyz
  end
  begin
    id 10
    name HEad
    direction -0.0472656 0.980052 0.19304
    length 5.12695
    axis -0.000934954 0.0245693 1.46543 xyz
    dof rx ry rz
  end
  begin
    id 11
    name LeftShoulder1Dummy
    direction 0.953098 0.301717 -0.023914
    length 3.68488
    axis -0.000934958 0.0245693 1.46543 xyz
  end
  begin
    id 12
    name LeftShoulder1
    direction 0.962466 0.271167 0.0112566
    length 3.13809
    axis -0.000934958 0.0245693 1.46543 xyz
    dof rx ry rz
  end
  begin
    id 13
    name LeftArm
    direction 0.999943 0.00455037 -0.00961766
    length 11.3419
    axis -23.1648 0.685459 1.22814 xyz
    dof rx ry rz
  end
  begin
    id 14
    name LeftForeArm
    direction 0.999332 0.0131969 0.0340885
    length 8.70632
    axis -9.90633 0.618216 0.0826942 xyz
    dof rx ry rz
  end
  begin
    id 15
    name LeftHand
    direction 0.994373 -0.0366703 0.0993905
    length 5.32135
    axis 0.00675269 0.680415 0.445699 xyz
    dof rx ry rz
  end
  begin
    id 16
    name RightShoulderDummy
    direction -0.967298 0.252589 -0.0230903
    length 3.68488
    axis -0.000934958 0.0245693 1.46543 xyz
  end
  begin
    id 17
    name RightShoulder
    direction -0.975062 0.221602 0.0120823
    length 3.13809
    axis 0.216257 0.0246515 1.45863 xyz
    dof rx ry rz
  end
  begin
    id 18
    name RightArm
    direction -0.99886 -0.00851186 -0.0469687
    length 10.3947
    axis -23.196 0.23503 -0.532632 xyz
    dof rx ry rz
  end
  begin
    id 19
    name RightForeArm
    direction -0.99909 0.00114866 0.0426317
    length 8.68355
    axis -9.91764 -0.134943 0.610517 xyz
    dof rx ry rz
  end
  begin
    id 20
    name RightHand
    direction -0.992888 -0.0489538 0.10852
    length 5.28593
    axis -0.00275396 -0.197403 0.246414 xyz
    dof rx ry rz
  end
  begin
    id 21
    name LeftUpLegDummy
    direction 1 -2.30186e-007 -8.31532e-007
    length 4.04083
    axis 0 0 0 xyz
  end
  begin
    id 22
    name LeftUpLeg
    direction -0.000920097 -1 2.79241e-006
    length 17.4221
    axis -3.48782 0.00143434 -0.0532288 xyz
    dof rx ry rz
  end
  begin
    id 23
    name LeftLeg
    direction -0.000920097 -1 2.7912e-006
    length 17.1239
    axis 3.68162 -0.00806512 -0.0529896 xyz
    dof rx ry rz
  end
  begin
    id 24
    name LeftFoot
    direction -2.57845e-005 -3.987e-007 1
    length 6.72091
    axis 3.02372e-005 -0.00147829 -0.214229 xyz
    dof rx ry rz
  end
  begin
    id 25
    name LeftToes
    direction 0.00813577 -0.00488255 0.999955
    length 3.85048
    axis 3.89895e-005 -0.0014783 -0.214229 xyz
    dof rx ry rz
  end
:hierarchy
  begin
    root RightUpLegDummy SpineDummy LeftUpLegDummy
    RightUpLegDummy RightUpLeg
    RightUpLeg RightLeg
    RightLeg RightFoot
    RightFoot RightToes
    SpineDummy Spine
    Spine Spine1
    Spine1 HEadDummy LeftShoulder1Dummy RightShoulderDummy
    HEadDummy HEad
    LeftShoulder1Dummy LeftShoulder1
    LeftShoulder1 LeftArm
    LeftArm LeftForeArm
    LeftForeArm LeftHand
    RightShoulderDummy RightShoulder
    RightShoulder RightArm
    RightArm RightForeArm
    RightForeArm RightHand
    LeftUpLegDummy LeftUpLeg
    LeftUpLeg LeftLeg
    LeftLeg LeftFoot
    LeftFoot LeftToes
  end

:SAMPLES-PER-SECOND 30
:FULLY-SPECIFIED
:DEGREES
62
root  -41.4997 34.6983 4.36812 -123.227 88.6787 -131.512
RightUpLeg  -7.63786 -17.4149 -0.925
RightLeg  6.11816 -1.54602 -0.0645448
RightFoot  5.42084 0.0199847 0.00422961
RightToes  -27.7084 -0.127119 -0.239345
Spine  -2.10262 -0.0463068 0.352113
Spine1  -4.28037 -0.0275244 1.28922
HEad  -67.5939 -7.5289 6.22783
LeftShoulder1  -1.94126e-019 -3.10601e-018 -2.51263e-017
LeftArm  -9.82945 24.9206 -82.0543
LeftForeArm  35.0086 -15.708 -2.57804
LeftHand  -0.461335 -1.86226 7.63329
RightShoulder  -4.96962e-017 0 -2.36833e-017
RightArm  -29.647 -24.5441 76.5211
RightForeArm  56.8046 13.8588 1.25999
RightHand  -0.415482 -0.845377 -10.7418
LeftUpLeg  -7.18395 6.28417 5.21531
LeftLeg  5.56952 13.6864 0.446034
LeftFoot  7.86816 -0.126975 2.01125
LeftToes  -29.2076 2.40056e-006 -7.68412e-008
63
root  -41.5149 34.7001 4.36879 -117.502 88.7906 -125.742
RightUpLeg  -7.71583 -17.2678 -0.939169
RightLeg  6.26345 -1.53307 -0.0678824
RightFoot  5.38201 0.0200662 0.00388538
RightToes  -27.6524 -0.126828 -0.239611
Spine  -2.08809 -0.0329729 0.353507
Spine1  -4.2517 -0.000864452 1.27697
HEad  -67.5237 -7.59578 6.18009
LeftShoulder1  -1.94126e-019 -3.10601e-018 -2.51263e-017
LeftArm  -9.91409 24.9165 -82.1665
LeftForeArm  35.1029 -15.8767 -2.59547
LeftHand  -0.461102 -1.85776 7.63066
RightShoulder  -4.96962e-017 0 -2.36833e-017
RightArm  -29.7662 -24.4568 76.523
RightForeArm  56.922 13.8055 1.27276
RightHand  -0.417767 -0.788471 -10.6674
LeftUpLeg  -7.11851 6.38571 5.20197
LeftLeg  5.54708 13.7418 0.442475
LeftFoot  7.91119 -0.128718 2.02985
LeftToes  -29.4128 2.40056e-006 -7.68412e-008
64
root  -41.531 34.703 4.36924 -112.044 88.8691 -120.256
RightUpLeg  -7.74424 -17.1397 -0.950054
RightLeg  6.28103 -1.53203 -0.0656861
RightFoot  5.41007 0.0201569 0.00345133
RightToes  -27.62 -0.126529 -0.23989
Spine  -2.05691 -0.0357574 0.356499
Spine1  -4.18983 -0.0130604 1.28246
HEad  -67.5164 -7.62222 6.1637
LeftShoulder1  -1.94126e-019 -3.10601e-018 -2.51263e-017
LeftArm  -9.95815 24.8272 -82.2873
LeftForeArm  35.1721 -16.1321 -2.63213
LeftHand  -0.461004 -1.84377 7.59768
RightShoulder  -4.96962e-017 0 -2.36833e-017
RightArm  -29.6161 -24.3554 76.5399
RightForeArm  56.8113 13.8691 1.26525
RightHand  -0.417278 -0.776373 -10.6754
LeftUpLeg  -7.06979 6.36385 5.18822
LeftLeg  5.5167 13.8725 0.439321
LeftFoot  7.90577 -0.130436 2.04774
LeftToes  -29.1515 2.40056e-006 -7.68412e-008
65
root  -41.5464 34.7049 4.36952 -107.372 88.9248 -115.555
RightUpLeg  -7.74608 -17.0825 -0.960425
RightLeg  6.25543 -1.48369 -0.0680227
RightFoot  5.43843 0.0202473 0.00306456
RightToes  -27.6209 -0.126224 -0.240181
Spine  -2.04931 -0.0427877 0.366845
Spine1  -4.17485 -0.0172611 1.30345
HEad  -67.582 -7.49404 6.15513
LeftShoulder1  -1.94126e-019 -3.10601e-018 -2.51263e-017
LeftArm  -9.8403 24.7921 -82.4118
LeftForeArm  35.1825 -16.4361 -2.67184
LeftHand  -0.461351 -1.88754 7.54596
RightShoulder  -4.96962e-017 0 -2.36833e-017
RightArm  -29.4639 -24.3367 76.5389
RightForeArm  56.6469 13.9758 1.25255
RightHand  -0.419271 -0.761001 -10.6055
LeftUpLeg  -7.02565 6.36674 5.1752
LeftLeg  5.48035 13.9629 0.433358
LeftFoot  7.9398 -0.132435 2.06969
LeftToes  -29.187 2.40056e-006 -7.68412e-008
66
root  -41.5667 34.7067 4.36968 -102.588 88.9744 -110.737
RightUpLeg  -7.76255 -16.9503 -0.966987
RightLeg  6.26469 -1.51692 -0.0601711
RightFoot  5.45363 0.0203277 0.00286209
RightToes  -27.6251 -0.125912 -0.240483
Spine  -2.03655 -0.0464364 0.379006
Spine1  -4.14995 -0.0223437 1.32767
HEad  -67.4363 -7.61547 6.0485
LeftShoulder1  -1.94126e-019 -3.10601e-018 -2.51263e-017
LeftArm  -9.70037 24.7536 -82.523
LeftForeArm  35.0961 -16.809 -2.71818
LeftHand  -0.458333 -1.85294 7.52202
RightShoulder  -4.96962e-017 0 -2.36833e-017
RightArm  -29.3385 -24.3044 76.5592
RightForeArm  56.4818 14.0869 1.23935
RightHand  -0.418104 -0.763566 -10.6333
LeftUpLeg  -6.99736 6.44584 5.16665
LeftLeg  5.46059 13.9805 0.429164
LeftFoot  7.98679 -0.134234 2.08419
LeftToes  -29.2143 2.40056e-006 -7.68412e-008
67
root  -41.5733 34.708 4.36977 -96.1653 89.0079 -104.298
RightUpLeg  -7.7898 -16.8704 -0.982304
RightLeg  6.29399 -1.47789 -0.0661897
RightFoot  5.45225 0.0203887 0.002981
RightToes  -27.6313 -0.125594 -0.240794
Spine  -2.02585 -0.0572197 0.399645
Spine1  -4.12878 -0.0419524 1.36858
HEad  -67.4463 -7.45936 6.02543
LeftShoulder1  -1.94126e-019 -3.10601e-018 -2.51263e-017
LeftArm  -9.58656 24.7398 -82.648
LeftForeArm  35.0072 -17.1792 -2.76583
LeftHand  -0.45641 -1.88577 7.4688
RightShoulder  -4.96962e-017 0 -2.36833e-017
RightArm  -29.2208 -24.2596 76.5594
RightForeArm  56.3711 14.172 1.22921
RightHand  -0.419742 -0.771609 -10.5717
LeftUpLeg  -6.95828 6.55385 5.15248
LeftLeg  5.44129 13.9882 0.424682
LeftFoot  7.97734 -0.134781 2.08316
LeftToes  -29.1558 2.40056e-006 -7.68412e-008
